 <svg version="1.0" xmlns="http://www.w3.org/2000/svg" width="700.000000pt" height="700.000000pt" viewBox="0 0 700.000000 700.000000" preserveAspectRatio="xMidYMid meet">
<metadata>
Created by VGSUD
</metadata>
<g transform="translate(0.000000,700.000000) scale(0.100000,-0.100000)" fill="#000000" stroke="none">
<path d="M0 3500 l0 -3500 3500 0 3500 0 0 3500 0 3500 -3500 0 -3500 0 0
-3500z m2486 3184 c21 -30 53 -74 70 -98 18 -23 78 -112 134 -197 56 -85 111
-166 121 -181 11 -15 19 -30 19 -33 0 -3 8 -18 18 -33 11 -15 39 -58 65 -97
66 -102 141 -167 262 -227 123 -62 206 -82 330 -82 206 1 364 64 501 199 81
81 113 128 239 350 37 66 90 149 119 185 50 64 204 232 218 238 12 5 175 -125
248 -198 115 -115 265 -350 350 -548 23 -53 45 -106 50 -117 75 -165 141 -482
159 -761 11 -177 22 -208 110 -309 210 -240 334 -416 449 -640 152 -297 202
-490 152 -593 -25 -51 -25 -59 -1 -104 73 -144 100 -385 67 -590 -42 -258
-229 -624 -577 -1127 -119 -173 -428 -511 -598 -655 -235 -199 -375 -300 -493
-355 -74 -36 -88 -39 -126 -32 -24 5 -57 19 -74 31 -26 19 -31 20 -46 7 -61
-54 -467 -320 -586 -384 -141 -75 -147 -76 -232 -39 -133 59 -449 257 -626
392 -63 49 -73 51 -107 28 -12 -9 -51 -18 -84 -21 -60 -4 -65 -2 -162 52 -285
159 -658 500 -950 869 -75 95 -301 424 -313 456 -3 8 -31 58 -61 110 -73 127
-185 360 -245 511 -47 119 -56 171 -56 317 1 142 2 150 60 316 41 119 41 120
21 135 -24 19 -41 61 -41 105 0 54 57 257 105 371 9 22 22 54 28 70 7 17 37
80 68 142 93 183 225 373 404 580 129 147 139 180 165 503 10 123 37 288 60
365 32 106 64 204 76 232 8 17 14 34 14 39 0 14 110 241 155 319 30 53 94 147
155 230 33 45 75 86 284 277 28 26 54 48 57 48 3 0 23 -25 45 -56z"></path>
<path d="M2315 6442 c-97 -93 -167 -187 -258 -345 -32 -54 -57 -100 -57 -102
0 -2 -18 -41 -39 -87 -108 -231 -161 -442 -186 -741 -18 -217 -26 -258 -63
-339 -32 -70 -72 -125 -172 -238 -150 -171 -264 -338 -355 -525 -77 -159 -108
-236 -146 -371 -36 -125 -35 -147 5 -154 49 -8 52 -27 22 -126 -15 -49 -40
-123 -56 -166 -40 -106 -53 -185 -48 -275 7 -105 35 -223 54 -223 9 0 14 11
14 29 0 62 148 436 166 419 3 -3 -4 -44 -14 -89 -11 -46 -26 -128 -32 -181
-13 -101 -10 -271 4 -285 5 -5 53 39 107 96 54 58 101 102 104 99 3 -3 -3 -30
-14 -59 -68 -185 -78 -334 -28 -403 13 -17 15 -15 36 27 27 55 170 181 187
165 3 -3 -4 -32 -15 -64 -60 -182 -66 -214 -66 -359 0 -99 6 -163 18 -217 16
-70 26 -88 104 -190 240 -317 567 -632 853 -823 114 -75 182 -103 105 -43 -58
46 -134 124 -188 195 -53 70 -134 213 -119 213 5 0 33 -32 62 -71 87 -117 251
-282 265 -267 2 2 -28 39 -66 82 -94 108 -207 311 -186 333 4 3 26 -16 49 -43
187 -214 350 -382 428 -442 231 -174 442 -314 632 -416 l87 -47 53 27 c88 44
226 129 363 223 72 49 175 120 230 158 101 69 263 226 460 446 48 54 90 96 92
93 8 -8 -17 -76 -51 -141 -17 -33 -59 -95 -93 -137 -34 -43 -58 -80 -53 -83
10 -6 117 113 194 215 27 36 51 67 53 69 2 2 6 2 9 -1 9 -9 -49 -117 -102
-188 -61 -84 -167 -194 -224 -233 -31 -22 -40 -33 -29 -35 23 -4 100 44 244
152 314 236 543 463 777 769 l92 120 17 95 c35 184 26 297 -45 527 -14 43 -23
81 -21 84 16 15 178 -128 195 -174 5 -14 14 -25 19 -25 4 0 19 28 32 62 23 61
23 62 6 143 -9 45 -30 122 -46 171 -16 49 -27 91 -24 94 3 3 52 -44 109 -104
83 -89 104 -106 110 -92 4 9 4 86 1 169 -4 112 -12 182 -31 266 -14 63 -24
116 -21 119 4 4 65 -120 108 -218 22 -51 57 -169 57 -192 0 -11 5 -18 12 -16
16 6 46 174 47 259 1 111 -41 285 -98 398 -33 67 -34 85 -1 126 43 54 41 110
-8 250 -104 298 -279 584 -521 849 -133 146 -157 210 -172 445 -5 90 -11 167
-14 170 -2 4 -9 44 -15 90 -25 181 -93 395 -191 600 -97 203 -200 354 -322
474 l-100 98 -37 -36 c-33 -32 -40 -47 -55 -122 -20 -105 -74 -273 -87 -273
-9 0 -8 18 17 173 6 42 8 77 4 77 -13 0 -79 -116 -79 -139 0 -12 -9 -61 -20
-109 -34 -154 -66 -200 -51 -74 4 35 4 65 0 67 -11 8 -66 -114 -99 -221 -17
-56 -43 -119 -56 -140 l-25 -39 6 60 c4 33 11 68 17 78 19 36 -2 30 -49 -14
-101 -94 -227 -161 -374 -200 -116 -31 -291 -31 -406 -1 -151 40 -306 123
-400 215 -58 56 -59 54 -39 -46 7 -38 9 -70 4 -73 -12 -8 -62 107 -87 201 -22
84 -70 195 -84 195 -5 0 -5 -37 -2 -82 12 -135 -30 -54 -60 117 -14 81 -64
195 -86 195 -11 0 -11 2 6 -105 17 -102 19 -144 7 -129 -19 21 -72 199 -91
307 -11 59 -43 117 -64 117 -7 0 -53 -40 -102 -88z m-15 -491 c327 -238 545
-454 622 -618 l29 -62 42 18 c64 27 220 63 258 59 33 -3 32 -4 -46 -49 -190
-111 -373 -274 -464 -414 -53 -81 -95 -163 -106 -208 -12 -46 9 -29 40 35 30
61 156 209 163 190 1 -5 -23 -50 -55 -98 -63 -97 -118 -240 -101 -261 23 -29
48 -8 48 40 1 51 85 187 116 187 11 0 7 -14 -15 -57 -34 -69 -58 -170 -43
-185 18 -18 42 0 42 30 0 15 7 37 15 48 14 18 14 17 15 -12 0 -70 10 -91 52
-110 42 -19 92 -69 103 -103 3 -12 11 -21 16 -21 26 0 38 112 20 178 -14 48 7
40 55 -21 73 -93 101 -185 90 -294 -7 -68 -46 -184 -74 -220 l-17 -21 -122 82
c-163 109 -284 169 -343 170 -48 1 -96 -25 -225 -124 -32 -25 -66 -50 -74 -56
-12 -10 -9 -19 21 -61 40 -54 126 -139 173 -169 26 -17 54 -20 270 -24 262 -5
261 -5 293 -64 13 -24 17 -64 19 -185 2 -85 5 -156 7 -158 2 -2 52 61 111 140
116 155 203 299 236 387 11 30 22 62 25 70 4 9 14 -6 25 -40 25 -70 80 -176
139 -266 52 -78 210 -289 217 -289 3 0 6 68 7 150 1 126 5 156 21 190 29 59
54 64 303 64 191 1 217 3 251 21 41 20 211 195 211 216 0 15 -186 153 -247
184 -40 20 -49 21 -91 10 -63 -15 -194 -86 -319 -171 -56 -38 -106 -69 -111
-69 -16 0 -48 58 -72 130 -18 52 -21 82 -18 160 3 83 7 104 35 160 29 59 96
140 107 129 3 -2 0 -25 -5 -49 -17 -73 5 -181 32 -164 5 3 9 13 9 23 0 24 63
88 108 109 36 16 37 19 40 75 2 31 7 57 12 57 5 0 16 -21 23 -47 9 -31 20 -49
32 -52 29 -5 14 98 -28 182 -19 37 -31 70 -27 72 11 7 67 -57 93 -107 14 -26
28 -66 32 -88 7 -43 28 -61 47 -42 25 25 -34 166 -127 305 -21 31 -35 60 -32
63 17 17 187 -197 187 -235 0 -6 5 -11 10 -11 19 0 10 31 -31 113 -96 194
-287 383 -530 524 l-83 48 41 3 c45 3 176 -27 247 -58 l46 -19 34 67 c59 118
175 250 351 401 150 128 381 301 403 301 6 0 12 -6 15 -12 3 -7 24 -60 46
-118 23 -58 46 -114 51 -125 5 -11 20 -49 34 -85 134 -356 152 -427 143 -595
-7 -117 -10 -132 -81 -405 -25 -96 -46 -179 -46 -186 0 -6 24 -26 53 -44 140
-90 298 -232 363 -326 32 -46 122 -285 151 -402 l11 -43 -30 6 c-17 4 -54 18
-84 31 -29 13 -56 20 -58 15 -3 -5 7 -33 23 -62 38 -71 88 -213 112 -319 22
-100 22 -100 9 -100 -5 0 -14 18 -20 39 -27 102 -183 441 -202 441 -6 0 -7 -8
-3 -17 34 -90 94 -297 119 -413 39 -181 44 -281 20 -391 -24 -107 -53 -165
-123 -248 -123 -148 -172 -240 -200 -376 -21 -104 -58 -166 -163 -273 -60 -60
-107 -89 -56 -34 44 48 115 146 138 191 12 24 31 87 41 140 11 53 27 116 36
141 16 43 78 144 125 202 12 15 19 30 16 33 -8 9 -155 -150 -192 -208 -18 -28
-51 -92 -72 -142 -96 -225 -377 -550 -611 -708 -99 -67 -272 -167 -288 -167
-9 0 19 67 79 188 100 200 136 281 159 364 27 94 80 418 93 568 4 48 17 101
35 146 58 140 219 375 365 533 35 38 64 72 64 75 0 3 -21 6 -46 6 -36 0 -61
-9 -108 -37 -131 -78 -259 -197 -334 -311 -20 -30 -38 -49 -40 -43 -6 18 66
144 114 199 74 84 27 60 -83 -43 -56 -52 -104 -95 -107 -95 -6 0 -137 136
-194 200 -17 19 -34 32 -38 28 -4 -4 -2 -13 3 -20 5 -7 18 -35 28 -63 9 -27
33 -73 51 -101 88 -136 140 -278 151 -418 7 -93 -7 -97 -27 -9 -17 76 -59 206
-71 218 -14 14 -11 -22 6 -88 18 -68 19 -130 5 -213 -13 -72 -59 -204 -71
-204 -12 0 -11 13 2 47 11 29 40 225 34 232 -7 7 -25 -11 -25 -25 0 -34 -56
-121 -118 -183 -50 -49 -90 -78 -157 -111 -85 -42 -94 -45 -175 -45 -76 0 -93
4 -150 32 -53 26 -67 30 -80 20 -55 -45 -166 -66 -250 -48 -135 29 -300 154
-359 273 -17 34 -31 67 -31 75 0 7 -5 13 -11 13 -14 0 -4 -119 18 -208 8 -35
12 -66 9 -69 -9 -9 -46 86 -62 157 -18 83 -18 186 0 279 11 58 11 71 1 60 -15
-16 -59 -150 -76 -227 -15 -73 -33 -57 -25 22 17 147 69 292 146 406 23 34 49
82 57 108 9 26 20 53 26 60 6 8 7 16 1 22 -6 6 -50 -36 -112 -105 -57 -63
-109 -115 -117 -115 -8 0 -20 8 -27 18 -25 35 -181 171 -190 166 -5 -3 11 -27
36 -54 40 -43 106 -154 106 -180 0 -21 -16 -8 -39 31 -51 91 -265 284 -367
333 -43 21 -124 27 -124 10 0 -8 4 -14 9 -14 13 0 154 -167 238 -281 146 -199
208 -330 223 -472 22 -213 58 -433 90 -547 27 -97 52 -156 156 -364 52 -105
94 -191 94 -193 0 -19 -264 134 -366 212 -96 74 -304 289 -390 405 -82 110
-120 175 -165 280 -17 41 -47 98 -65 125 -39 58 -182 210 -190 202 -3 -3 17
-35 45 -70 68 -86 107 -176 132 -300 24 -118 57 -187 140 -291 32 -39 55 -73
53 -75 -8 -8 -104 92 -149 154 -52 72 -70 115 -86 198 -22 118 -81 222 -213
377 -25 29 -52 67 -60 84 -23 50 -66 224 -66 270 1 121 86 487 156 669 3 10 1
17 -6 17 -16 0 -125 -230 -177 -375 -42 -118 -56 -112 -28 12 21 88 70 232
106 307 16 33 29 61 29 63 0 9 -36 1 -73 -16 -64 -28 -97 -34 -97 -17 0 30
123 382 147 420 56 87 202 220 348 315 44 29 81 54 82 55 3 3 -57 243 -90 361
-54 187 -56 372 -7 526 28 85 118 334 140 384 10 22 34 83 55 135 43 111 53
130 64 130 5 0 64 -40 131 -89z m1292 -928 c46 -18 108 -60 108 -74 0 -4 -16
-1 -35 7 -67 28 -173 7 -217 -43 -74 -85 -61 -221 27 -289 55 -41 130 -48 210
-19 13 4 7 -5 -17 -29 -117 -112 -322 -68 -405 88 -26 48 -23 179 4 231 63
119 205 175 325 128z m-861 -925 c68 -23 229 -127 229 -148 0 -12 -80 -29
-173 -36 -76 -6 -90 -4 -132 16 -62 30 -164 125 -150 139 13 13 118 39 161 40
17 1 46 -4 65 -11z m1709 -4 c39 -8 73 -21 77 -27 9 -15 -98 -111 -154 -138
-39 -19 -56 -21 -127 -16 -89 6 -176 25 -176 37 0 20 159 124 225 148 43 15
76 14 155 -4z m-1351 -1888 c132 -79 182 -85 327 -41 l88 27 81 -26 c142 -45
212 -35 347 50 58 37 62 33 55 -45 -10 -117 -46 -177 -127 -213 -78 -35 -212
-75 -292 -89 -67 -11 -87 -11 -160 5 -138 29 -292 88 -335 128 -44 41 -82 238
-46 238 3 0 31 -15 62 -34z m437 -781 c36 -28 106 -55 144 -55 41 0 99 21 143
52 l27 19 0 -65 c0 -84 -26 -244 -49 -305 -10 -27 -33 -70 -51 -97 -38 -55
-221 -244 -237 -244 -16 0 -179 164 -228 230 -28 40 -53 89 -69 138 -28 90
-55 307 -40 322 7 7 29 0 65 -20 68 -37 124 -39 195 -6 28 13 55 29 58 35 9
15 18 14 42 -4z m-588 -254 c50 -10 95 -22 101 -25 6 -4 15 -26 22 -49 35
-135 101 -232 268 -395 64 -62 107 -110 96 -106 -11 4 -60 26 -110 50 -194 91
-349 243 -446 436 -38 76 -47 108 -31 108 5 0 50 -9 100 -19z m1236 11 c8 -13
-55 -140 -105 -214 -56 -84 -173 -198 -258 -253 -73 -47 -207 -115 -227 -115
-7 0 47 60 119 133 144 144 187 206 228 330 15 43 29 80 31 83 5 4 173 42 195
43 6 1 14 -3 17 -7z"></path>
<path d="M4729 5763 c-109 -72 -226 -234 -341 -468 -32 -66 -63 -128 -68 -137
-17 -30 -11 -41 46 -98 66 -65 153 -184 218 -296 l47 -82 62 -17 c70 -20 185
-75 236 -113 20 -14 32 -19 29 -11 -8 26 -127 96 -214 125 -98 33 -90 26 -205
201 -44 68 -106 151 -139 187 -33 35 -60 72 -60 83 0 30 132 288 199 389 67
102 174 214 203 214 14 0 27 -17 47 -62 62 -138 65 -175 11 -123 -48 46 -35
16 26 -60 54 -68 74 -86 74 -68 0 34 -120 335 -137 346 -5 4 -21 -1 -34 -10z"></path>
<path d="M4682 5532 c-35 -54 -68 -127 -53 -118 5 3 26 35 45 71 20 35 41 67
46 70 12 8 13 25 1 25 -5 0 -23 -21 -39 -48z"></path>
<path d="M4677 5379 c-49 -42 -67 -76 -21 -40 45 35 52 29 46 -44 -3 -45 -1
-65 7 -65 6 0 11 18 12 43 0 23 4 64 8 90 4 26 5 50 1 52 -3 2 -27 -14 -53
-36z"></path>
<path d="M4607 5394 c-4 -4 -7 -14 -7 -23 0 -11 3 -12 11 -4 6 6 10 16 7 23
-2 6 -7 8 -11 4z"></path>
<path d="M4690 5195 c0 -8 5 -15 10 -15 6 0 10 7 10 15 0 8 -4 15 -10 15 -5 0
-10 -7 -10 -15z"></path>
<path d="M4711 5151 c2 -5 29 -27 59 -48 34 -24 55 -46 55 -58 0 -18 26 -32
68 -34 33 -2 16 18 -60 72 -90 63 -127 84 -122 68z"></path>
<path d="M4780 5040 c0 -5 5 -10 10 -10 6 0 10 5 10 10 0 6 -4 10 -10 10 -5 0
-10 -4 -10 -10z"></path>
<path d="M4775 4992 c6 -4 37 -24 70 -46 33 -21 86 -59 118 -83 53 -40 79 -50
63 -25 -8 13 -174 125 -215 145 -35 18 -54 22 -36 9z"></path>
<path d="M4600 4951 c0 -5 10 -11 23 -15 13 -3 59 -35 101 -70 73 -60 165
-106 215 -106 24 0 0 16 -44 30 -65 20 -111 47 -165 95 -68 60 -130 92 -130
66z"></path>
<path d="M2395 4929 c-4 -6 -5 -13 -2 -16 7 -7 27 6 27 18 0 12 -17 12 -25 -2z"></path>
<path d="M4570 4919 c0 -4 21 -46 47 -95 49 -92 74 -102 28 -10 -25 50 -74
118 -75 105z"></path>
<path d="M2055 4740 c-3 -5 -1 -10 4 -10 6 0 11 5 11 10 0 6 -2 10 -4 10 -3 0
-8 -4 -11 -10z"></path>
<path d="M4690 4723 c0 -6 18 -13 41 -17 22 -4 67 -20 99 -36 65 -33 70 -34
70 -21 0 5 -29 23 -65 40 -69 33 -145 50 -145 34z"></path>
<path d="M4943 4685 c-13 -41 2 -49 17 -9 12 31 13 44 2 44 -5 0 -13 -16 -19
-35z"></path>
<path d="M2075 4670 c-3 -5 1 -10 9 -10 9 0 16 5 16 10 0 6 -4 10 -9 10 -6 0
-13 -4 -16 -10z"></path>
<path d="M1830 4316 c-39 -58 -87 -153 -111 -224 -22 -63 -22 -62 -11 -62 4 0
14 17 21 38 26 74 66 158 104 220 46 73 44 95 -3 28z"></path>
<path d="M1966 4111 c-3 -4 -19 -11 -34 -14 -53 -11 -230 -126 -195 -127 7 0
32 15 56 33 49 37 104 63 114 53 4 -4 0 -19 -9 -34 -43 -72 -89 -247 -103
-392 -12 -122 -36 -275 -53 -330 -11 -38 -16 -92 -16 -175 0 -111 2 -125 30
-191 37 -85 273 -429 274 -399 0 10 -20 41 -153 233 -104 149 -128 210 -135
332 -3 76 0 113 17 180 22 90 33 160 56 355 27 227 80 383 154 449 11 11 21
23 21 28 0 11 -17 10 -24 -1z"></path>
<path d="M1690 3995 c0 -8 5 -15 10 -15 6 0 10 7 10 15 0 8 -4 15 -10 15 -5 0
-10 -7 -10 -15z"></path>
<path d="M2238 3900 c-60 -24 -118 -62 -118 -76 0 -14 84 -59 156 -84 60 -21
184 -28 184 -10 0 6 -28 10 -65 10 -94 0 -235 55 -235 92 0 12 120 68 145 68
12 0 51 -31 95 -76 41 -42 90 -83 109 -91 18 -8 71 -17 117 -20 46 -3 84 -10
84 -14 0 -12 -35 -29 -58 -29 -20 0 -49 -26 -39 -36 7 -7 210 81 214 93 2 4
-61 8 -139 8 -138 0 -145 1 -190 28 -26 15 -73 56 -104 92 -65 73 -78 77 -156
45z"></path>
<path d="M4621 3869 c-23 -29 -65 -70 -92 -91 -59 -44 -113 -53 -261 -45 -54
3 -98 2 -98 -1 0 -10 210 -105 217 -98 10 10 -18 36 -39 36 -23 0 -58 17 -58
29 0 4 38 11 84 13 113 7 160 31 239 120 61 68 63 69 102 63 51 -8 119 -45
123 -68 6 -30 -115 -80 -210 -85 -43 -3 -78 -9 -78 -15 0 -6 30 -8 78 -5 65 4
93 11 160 43 103 48 111 57 75 83 -50 35 -112 62 -156 68 -43 6 -44 6 -86 -47z"></path>
<path d="M2462 3678 c-21 -21 -14 -38 16 -38 31 0 90 16 112 29 27 18 3 21
-41 6 -39 -14 -45 -14 -55 0 -14 18 -17 18 -32 3z"></path>
<path d="M4410 3680 c0 -10 86 -40 116 -40 29 0 38 14 19 30 -11 9 -18 10 -28
1 -11 -8 -26 -7 -60 3 -26 8 -47 10 -47 6z"></path>
<path d="M1953 2998 c59 -160 107 -345 107 -413 0 -19 5 -35 10 -35 6 0 10 14
10 31 0 39 -43 228 -69 305 -27 82 -13 90 50 29 106 -104 219 -301 280 -489
36 -107 108 -247 184 -354 77 -109 104 -141 105 -121 0 9 -7 22 -15 29 -23 19
-159 228 -193 296 -17 34 -45 103 -61 154 -60 179 -165 369 -265 478 -64 69
-158 128 -143 90z"></path>
<path d="M3340 2896 c-145 -43 -184 -107 -144 -238 22 -74 38 -85 190 -134
l112 -35 58 16 c183 51 236 81 253 149 29 116 3 181 -88 223 -50 23 -70 26
-196 29 -97 3 -154 0 -185 -10z m294 -56 c30 -12 60 -28 68 -37 12 -15 9 -16
-27 -9 -22 4 -67 11 -100 17 -64 11 -143 6 -225 -15 -58 -15 -72 -6 -33 20 73
47 223 59 317 24z"></path>
<path d="M3805 2064 c-62 -47 -90 -83 -39 -50 28 18 98 70 119 88 5 5 3 8 -5
8 -8 0 -42 -21 -75 -46z"></path>
</g>
</svg>